<svg width="40" height="40" viewBox="0 0 40 40" fill="none" xmlns="http://www.w3.org/2000/svg">
<path d="M26.9833 3.33331H13.0166C6.94998 3.33331 3.33331 6.94998 3.33331 13.0166V26.9666C3.33331 33.05 6.94998 36.6666 13.0166 36.6666H26.9666C33.0333 36.6666 36.65 33.05 36.65 26.9833V13.0166C36.6666 6.94998 33.05 3.33331 26.9833 3.33331ZM19.1666 28.75C19.1666 29.35 18.5666 29.75 18.0166 29.5166C16 28.65 13.3666 27.85 11.5333 27.6166L11.2166 27.5833C10.2 27.45 9.36665 26.5 9.36665 25.4666V12.6333C9.36665 11.35 10.4 10.4 11.6666 10.5C13.75 10.6666 16.8333 11.6666 18.7666 12.7666C19.0333 12.9166 19.1666 13.2 19.1666 13.4833V28.75ZM30.6333 25.45C30.6333 26.4833 29.8 27.4333 28.7833 27.5666L28.4333 27.6C26.6166 27.85 24 28.6333 21.9833 29.4833C21.4333 29.7166 20.8333 29.3166 20.8333 28.7166V13.4666C20.8333 13.1666 20.9833 12.8833 21.25 12.7333C23.1833 11.65 26.2 10.6833 28.25 10.5H28.3166C29.6 10.5 30.6333 11.5333 30.6333 12.8166V25.45Z" fill="#546FFF"/>
</svg>
